<?xml version="1.0"?>
<svg xmlns="http://www.w3.org/2000/svg" xmlns:xlink="http://www.w3.org/1999/xlink" version="1.1" id="Capa_1" x="0px" y="0px" viewBox="0 0 512 512" style="enable-background:new 0 0 512 512;" xml:space="preserve" width="512px" height="512px" class=""><g><rect x="103.7" y="251.83" style="fill:#E6E6E6;" width="293.31" height="84.82" data-original="#E6E6E6" class=""/><rect x="256" y="251.83" style="fill:#CCCCCC;" width="141" height="84.82" data-original="#CCCCCC"/><rect x="346.06" y="251.83" style="fill:#FFB94F;" width="50.28" height="84.82" data-original="#FFB94F"/><g>
	<rect x="316.47" y="137.65" style="fill:#999999;" width="30" height="85.43" data-original="#999999" class=""/>
	<rect x="367" y="93.36" style="fill:#999999;" width="30" height="129.72" data-original="#999999" class=""/>
</g><path style="fill:#FF6536" d="M0,256c0,68.38,26.629,132.667,74.98,181.02C123.333,485.371,187.62,512,256,512  s132.667-26.629,181.02-74.98C485.371,388.667,512,324.38,512,256s-26.629-132.667-74.98-181.02C388.667,26.629,324.38,0,256,0  S123.333,26.629,74.98,74.98C26.629,123.333,0,187.62,0,256z M256,482c-55.339,0-107.632-19.768-148.845-55.942l318.902-318.902  C462.232,148.367,482,200.661,482,256c0,60.367-23.508,117.12-66.194,159.806S316.367,482,256,482z M30,256  c0-60.367,23.508-117.12,66.194-159.806S195.633,30,256,30c55.339,0,107.632,19.768,148.845,55.942L85.943,404.845  C49.768,363.633,30,311.339,30,256z" data-original="#FF6536" class=""/><path style="fill:#FF6536" d="M437.02,74.98C388.667,26.629,324.38,0,256,0v30c55.339,0,107.632,19.768,148.845,55.942L256,234.787  v42.426l170.057-170.057C462.232,148.367,482,200.661,482,256c0,60.367-23.508,117.12-66.194,159.806S316.367,482,256,482v30  c68.38,0,132.667-26.629,181.02-74.98C485.371,388.667,512,324.38,512,256S485.371,123.333,437.02,74.98z" data-original="#FF421D" class="active-path" data-old_color="#FF421D"/></g> </svg>
