<?xml version="1.0" encoding="UTF-8" standalone="no"?>
<svg
   xmlns:dc="http://purl.org/dc/elements/1.1/"
   xmlns:cc="http://creativecommons.org/ns#"
   xmlns:rdf="http://www.w3.org/1999/02/22-rdf-syntax-ns#"
   xmlns:svg="http://www.w3.org/2000/svg"
   xmlns="http://www.w3.org/2000/svg"
   xmlns:sodipodi="http://sodipodi.sourceforge.net/DTD/sodipodi-0.dtd"
   xmlns:inkscape="http://www.inkscape.org/namespaces/inkscape"
   version="1.1"
   id="Capa_1"
   x="0px"
   y="0px"
   viewBox="0 0 54 54"
   style="enable-background:new 0 0 54 54;"
   xml:space="preserve"
   width="512px"
   height="512px"
   class=""
   inkscape:version="0.91 r13725"
   sodipodi:docname="right-arrow.svg"><metadata
     id="metadata19"><rdf:RDF><cc:Work
         rdf:about=""><dc:format>image/svg+xml</dc:format><dc:type
           rdf:resource="http://purl.org/dc/dcmitype/StillImage" /><dc:title></dc:title></cc:Work></rdf:RDF></metadata><defs
     id="defs17" /><sodipodi:namedview
     pagecolor="#ffffff"
     bordercolor="#666666"
     borderopacity="1"
     objecttolerance="10"
     gridtolerance="10"
     guidetolerance="10"
     inkscape:pageopacity="0"
     inkscape:pageshadow="2"
     inkscape:window-width="1366"
     inkscape:window-height="715"
     id="namedview15"
     showgrid="true"
     inkscape:zoom="0.921875"
     inkscape:cx="116.35968"
     inkscape:cy="265.77685"
     inkscape:window-x="0"
     inkscape:window-y="27"
     inkscape:window-maximized="1"
     inkscape:current-layer="Capa_1"><inkscape:grid
       type="xygrid"
       id="grid4149" /></sodipodi:namedview><g
     id="g3"><g
       id="g5"><g
         id="g7"><path
           style="fill:#126FAD"
           d="M27,1L27,1c14.359,0,26,11.641,26,26v0c0,14.359-11.641,26-26,26h0C12.641,53,1,41.359,1,27v0    C1,12.641,12.641,1,27,1z"
           data-original="#4FBA6F"
           class="active-path"
           data-old_color="#4FBA6F"
           id="path9" /><path
           style="fill:#126FAD"
           d="M27,54C12.112,54,0,41.888,0,27S12.112,0,27,0s27,12.112,27,27S41.888,54,27,54z M27,2    C13.215,2,2,13.215,2,27s11.215,25,25,25s25-11.215,25-25S40.785,2,27,2z"
           data-original="#4FBA6F"
           class="active-path"
           data-old_color="#4FBA6F"
           id="path11" /></g><path
         style="fill:#ffffff"
         d="m 21.534529,42.214849 c 0.299617,0 0.599234,-0.114705 0.827456,-0.342917 L 35.818907,28.41501 c 0.780631,-0.780652 0.780631,-2.049326 0,-2.829957 L 22.361985,12.12811 c -0.457612,-0.457612 -1.1973,-0.457612 -1.654912,0 -0.457612,0.457633 -0.454763,2.275509 0,2.735956 L 32.693228,27.000021 20.707073,39.08085 c -0.455819,0.45942 -0.457612,2.33347 0,2.791082 0.228222,0.228222 0.527839,0.342917 0.827456,0.342917 z"
         data-original="#FFFFFF"
         class=""
         id="path13"
         inkscape:connector-curvature="0"
         sodipodi:nodetypes="ssssssscsss" /></g></g></svg>