<?xml version="1.0" encoding="UTF-8" standalone="no"?>
<!-- Generator: Adobe Illustrator 19.0.0, SVG Export Plug-In . SVG Version: 6.00 Build 0)  -->

<svg
   xmlns:dc="http://purl.org/dc/elements/1.1/"
   xmlns:cc="http://creativecommons.org/ns#"
   xmlns:rdf="http://www.w3.org/1999/02/22-rdf-syntax-ns#"
   xmlns:svg="http://www.w3.org/2000/svg"
   xmlns="http://www.w3.org/2000/svg"
   xmlns:sodipodi="http://sodipodi.sourceforge.net/DTD/sodipodi-0.dtd"
   xmlns:inkscape="http://www.inkscape.org/namespaces/inkscape"
   version="1.1"
   id="Layer_1"
   x="0px"
   y="0px"
   viewBox="0 0 514.133 514.133"
   style="enable-background:new 0 0 514.133 514.133;"
   xml:space="preserve"
   inkscape:version="0.91 r13725"
   sodipodi:docname="thematic.svg"><metadata
     id="metadata103"><rdf:RDF><cc:Work
         rdf:about=""><dc:format>image/svg+xml</dc:format><dc:type
           rdf:resource="http://purl.org/dc/dcmitype/StillImage" /></cc:Work></rdf:RDF></metadata><defs
     id="defs101" /><sodipodi:namedview
     pagecolor="#ffffff"
     bordercolor="#666666"
     borderopacity="1"
     objecttolerance="10"
     gridtolerance="10"
     guidetolerance="10"
     inkscape:pageopacity="0"
     inkscape:pageshadow="2"
     inkscape:window-width="1366"
     inkscape:window-height="715"
     id="namedview99"
     showgrid="false"
     inkscape:zoom="0.4590252"
     inkscape:cx="257.0665"
     inkscape:cy="257.0665"
     inkscape:window-x="0"
     inkscape:window-y="27"
     inkscape:window-maximized="1"
     inkscape:current-layer="g63" /><path
     style="fill:#8AD7F8;"
     d="M266.667,401.6v-44.8l-37.333-7.467c-2.133-5.333-4.267-11.733-6.4-17.067l20.267-32l-32-32  l-32,21.333c-5.333-3.2-10.667-5.333-17.067-7.467l-6.4-36.267h-44.8l-7.467,37.333c-5.333,2.133-11.733,4.267-17.067,7.467  l-32-21.333l-32,32l21.333,32c-3.2,5.333-5.333,10.667-7.467,17.067L0,356.8v44.8l37.333,7.467  C39.467,414.4,41.6,420.8,44.8,426.133l-21.333,32l32,32l32-20.267c5.333,3.2,10.667,5.333,17.067,6.4L112,513.6h44.8l7.467-37.333  c5.333-2.133,11.733-4.267,17.067-6.4l32,20.267l32-32l-20.267-32c3.2-5.333,5.333-10.667,6.4-17.067L266.667,401.6z   M133.333,413.333c-19.2,0-34.133-14.933-34.133-34.133s14.933-34.133,34.133-34.133S167.467,360,167.467,379.2  S152.533,413.333,133.333,413.333z"
     id="path3" /><path
     style="fill:#55C0EB;"
     d="M133.333,317.333c-34.133,0-61.867,27.733-61.867,61.867s27.733,61.867,61.867,61.867  S195.2,413.333,195.2,379.2S167.467,317.333,133.333,317.333z M133.333,413.333c-19.2,0-34.133-14.933-34.133-34.133  s14.933-34.133,34.133-34.133S167.467,360,167.467,379.2S152.533,413.333,133.333,413.333z"
     id="path5" /><path
     id="SVGCleanerId_0"
     style="fill:#F3705A;"
     d="M300.8,6.933c-19.2,0-34.133,14.933-34.133,34.133c0,1.067,0,3.2,0,4.267  c-10.667,0-21.333,6.4-28.8,16c-2.133,4.267-4.267,8.533-5.333,12.8c-7.467,0-14.933,4.267-18.133,10.667  c-3.2,6.4-3.2,13.867-1.067,19.2c-13.867,9.6-23.467,25.6-23.467,43.733c0,26.667,19.2,48,44.8,52.267  c-4.267,9.6-4.267,21.333,1.067,32c8.533,18.133,30.933,26.667,50.133,18.133c-1.067,3.2-2.133,6.4-2.133,10.667  c0,13.867,11.733,25.6,25.6,25.6s25.6-11.733,25.6-25.6V41.067C333.867,21.867,318.933,6.933,300.8,6.933z" /><g
     id="g8"><path
       id="SVGCleanerId_0_1_"
       style="fill:#F3705A;"
       d="M300.8,6.933c-19.2,0-34.133,14.933-34.133,34.133c0,1.067,0,3.2,0,4.267   c-10.667,0-21.333,6.4-28.8,16c-2.133,4.267-4.267,8.533-5.333,12.8c-7.467,0-14.933,4.267-18.133,10.667   c-3.2,6.4-3.2,13.867-1.067,19.2c-13.867,9.6-23.467,25.6-23.467,43.733c0,26.667,19.2,48,44.8,52.267   c-4.267,9.6-4.267,21.333,1.067,32c8.533,18.133,30.933,26.667,50.133,18.133c-1.067,3.2-2.133,6.4-2.133,10.667   c0,13.867,11.733,25.6,25.6,25.6s25.6-11.733,25.6-25.6V41.067C333.867,21.867,318.933,6.933,300.8,6.933z" /></g><g
     id="g11"><path
       style="fill:#F05540;"
       d="M308.267,293.867c-18.133,0-32-14.933-32-32V260.8c-19.2,3.2-38.4-7.467-46.933-25.6   c-4.267-9.6-5.333-20.267-3.2-29.867c-24.533-7.467-42.667-30.933-42.667-57.6c0-18.133,8.533-35.2,22.4-45.867   c-1.067-7.467,0-13.867,3.2-20.267c4.267-7.467,10.667-11.733,19.2-13.867c1.067-4.267,3.2-7.467,5.333-9.6   c6.4-9.6,16-16,27.733-18.133c1.067-21.333,18.133-38.4,40.533-38.4S342.4,19.733,342.4,42.133v220.8   C340.267,280,326.4,293.867,308.267,293.867z M284.8,244.8c2.133,0,3.2,1.067,4.267,2.133c2.133,2.133,2.133,5.333,1.067,7.467   c-1.067,2.133-2.133,5.333-2.133,7.467c0,10.667,8.533,19.2,19.2,19.2c10.667,0,19.2-8.533,19.2-19.2v-220.8   c0-14.933-11.733-26.667-26.667-26.667c-14.933,0-26.667,11.733-26.667,26.667c0,1.067,0,2.133,0,3.2v1.067   c0,2.133,0,3.2-1.067,5.333c-1.067,1.067-3.2,2.133-4.267,2.133c-9.6,1.067-18.133,5.333-24.533,13.867   c-2.133,3.2-3.2,6.4-4.267,10.667c-1.067,3.2-3.2,5.333-6.4,5.333c-5.333,0-10.667,3.2-12.8,7.467s-3.2,9.6-1.067,13.867   c1.067,3.2,0,6.4-2.133,8.533c-12.8,8.533-20.267,23.467-20.267,38.4c0,22.4,16,42.667,38.4,45.867c2.133,0,4.267,1.067,4.267,3.2   c1.067,2.133,1.067,4.267,0,5.333c-4.267,8.533-3.2,18.133,0,26.667c7.467,14.933,25.6,22.4,41.6,14.933   C283.733,244.8,283.733,244.8,284.8,244.8z"
       id="path13" /><path
       style="fill:#F05540;"
       d="M296.533,59.2c4.267,0,6.4-3.2,7.467-6.4c0-4.267-3.2-7.467-6.4-7.467   c-11.733-1.067-22.4-7.467-28.8-12.8c-2.133,4.267-2.133,8.533-2.133,11.733c0,1.067,0,3.2,0,4.267   C274.133,53.867,284.8,59.2,296.533,59.2L296.533,59.2z"
       id="path15" /><path
       style="fill:#F05540;"
       d="M262.4,109.333h1.067c3.2,0,6.4-2.133,7.467-5.333c1.067-4.267-2.133-7.467-5.333-8.533   c-18.133-3.2-24.533-14.933-26.667-21.333l0,0c-5.333,0-9.6,2.133-12.8,5.333C229.333,90.133,240,105.067,262.4,109.333z"
       id="path17" /><path
       style="fill:#F05540;"
       d="M236.8,95.467V88c-6.4,5.333-14.933,19.2-6.4,38.4c1.067,3.2,5.333,5.333,9.6,4.267   c3.2-2.133,5.333-5.333,4.267-9.6c-6.4-14.933,2.133-21.333,3.2-22.4c1.067-1.067,2.133-2.133,2.133-3.2L236.8,95.467L236.8,95.467   z"
       id="path19" /><path
       style="fill:#F05540;"
       d="M250.667,191.467c4.267-9.6,3.2-19.2-2.133-30.933c-2.133-3.2-6.4-5.333-9.6-3.2s-5.333,6.4-3.2,9.6   c3.2,7.467,4.267,13.867,2.133,19.2c-4.267,9.6-17.067,14.933-17.067,14.933c-1.067,0-1.067,1.067-1.067,1.067   c6.4,3.2,12.8,4.267,20.267,4.267l0,0C243.2,203.2,248.533,197.867,250.667,191.467z"
       id="path21" /><path
       style="fill:#F05540;"
       d="M282.667,185.067c-4.267-10.667-10.667-14.933-16-16c-8.533-3.2-16-1.067-20.267,1.067   c0,4.267-2.133,8.533-5.333,12.8l0,0c2.133,2.133,5.333,2.133,8.533,1.067c0,0,7.467-4.267,12.8-2.133   c3.2,1.067,5.333,4.267,7.467,8.533c1.067,3.2,4.267,4.267,6.4,4.267c1.067,0,2.133,0,2.133,0   C282.667,193.6,283.733,189.333,282.667,185.067z"
       id="path23" /><path
       style="fill:#F05540;"
       d="M301.867,243.733c3.2-1.067,6.4-1.067,9.6,0c3.2,1.067,7.467,0,9.6-4.267   c1.067-3.2,0-7.467-4.267-9.6c-6.4-2.133-13.867-2.133-20.267,1.067c-11.733,5.333-19.2,17.067-23.467,26.667   c6.4,0,12.8,0,18.133-3.2C293.333,250.133,297.6,245.867,301.867,243.733z"
       id="path25" /><path
       style="fill:#F05540;"
       d="M288,239.467L288,239.467c4.267-2.133,8.533-3.2,13.867-4.267   c-4.267-17.067-20.267-23.467-28.8-23.467c-4.267,0-7.467,2.133-7.467,6.4s2.133,7.467,6.4,7.467   C270.933,224.533,284.8,226.667,288,239.467z"
       id="path27" /><path
       style="fill:#F05540;"
       d="M314.667,145.6c-9.6,5.333-22.4,21.333-12.8,48c1.067,3.2,5.333,4.267,7.467,4.267   c3.2-1.067,6.4-5.333,5.333-9.6c-8.533-22.4,5.333-29.867,6.4-30.933c2.133-1.067,3.2-2.133,3.2-4.267   C321.067,150.933,316.8,148.8,314.667,145.6z"
       id="path29" /><path
       style="fill:#F05540;"
       d="M286.933,83.733c-2.133,3.2,0,7.467,3.2,9.6c1.067,0,2.133,1.067,3.2,1.067   c2.133,0,5.333-1.067,6.4-4.267c7.467-16,24.533-17.067,34.133-16V60.267C317.867,58.133,296.533,62.4,286.933,83.733z"
       id="path31" /><path
       style="fill:#F05540;"
       d="M321.067,144.533c-4.267-4.267-6.4-8.533-6.4-16c0-4.267-3.2-7.467-7.467-7.467   s-7.467,3.2-7.467,7.467c0,10.667,3.2,20.267,10.667,26.667c6.4,6.4,14.933,8.533,22.4,9.6v-14.933   C329.6,149.867,325.333,147.733,321.067,144.533z"
       id="path33" /></g><path
     id="SVGCleanerId_1"
     style="fill:#F3705A;"
     d="M395.733,6.933C413.867,6.933,428.8,21.867,428.8,40c0,1.067,0,3.2,0,4.267  c11.733,1.067,22.4,6.4,28.8,17.067c2.133,4.267,4.267,8.533,5.333,12.8c7.467,0,14.933,4.267,18.133,10.667  c3.2,6.4,3.2,13.867,1.067,19.2C496,113.6,505.6,129.6,505.6,147.733c0,26.667-19.2,48-44.8,52.267c4.267,9.6,4.267,21.333-1.067,32  c-8.533,18.133-30.933,26.667-50.133,18.133c1.067,3.2,2.133,6.4,2.133,10.667c0,13.867-11.733,25.6-25.6,25.6  s-25.6-11.733-25.6-25.6V41.067C361.6,21.867,376.533,6.933,395.733,6.933z" /><g
     id="g36"><path
       id="SVGCleanerId_1_1_"
       style="fill:#F3705A;"
       d="M395.733,6.933C413.867,6.933,428.8,21.867,428.8,40c0,1.067,0,3.2,0,4.267   c11.733,1.067,22.4,6.4,28.8,17.067c2.133,4.267,4.267,8.533,5.333,12.8c7.467,0,14.933,4.267,18.133,10.667   c3.2,6.4,3.2,13.867,1.067,19.2C496,113.6,505.6,129.6,505.6,147.733c0,26.667-19.2,48-44.8,52.267   c4.267,9.6,4.267,21.333-1.067,32c-8.533,18.133-30.933,26.667-50.133,18.133c1.067,3.2,2.133,6.4,2.133,10.667   c0,13.867-11.733,25.6-25.6,25.6s-25.6-11.733-25.6-25.6V41.067C361.6,21.867,376.533,6.933,395.733,6.933z" /></g><g
     id="g39"><path
       style="fill:#F05540;"
       d="M355.2,261.867v-220.8c0-22.4,18.133-40.533,40.533-40.533c21.333,0,39.467,17.067,40.533,38.4   C448,41.067,457.6,47.467,464,57.067c2.133,3.2,3.2,6.4,5.333,9.6c7.467,2.133,14.933,6.4,19.2,13.867   c3.2,6.4,4.267,13.867,3.2,20.267c13.867,11.733,22.4,27.733,22.4,45.867c0,26.667-17.067,50.133-42.667,57.6   c2.133,9.6,1.067,20.267-3.2,29.867c-8.533,18.133-27.733,27.733-46.933,25.6v1.067c0,18.133-13.867,32-32,32   C370.133,293.867,355.2,280,355.2,261.867z M412.8,244.8c16,6.4,34.133,0,41.6-14.933c4.267-8.533,4.267-18.133,0-26.667   c-1.067-2.133-1.067-4.267,0-5.333c1.067-2.133,3.2-3.2,4.267-3.2c22.4-3.2,38.4-23.467,38.4-45.867   c0-14.933-7.467-29.867-20.267-38.4c-2.133-2.133-3.2-5.333-2.133-8.533C476.8,97.6,476.8,92.267,473.6,88   c-2.133-4.267-7.467-7.467-12.8-7.467c-3.2,0-5.333-2.133-6.4-5.333c-1.067-4.267-2.133-7.467-4.267-10.667   C444.8,56,436.267,51.733,425.6,50.667c-2.133,0-3.2-1.067-4.267-2.133c-1.067-1.067-2.133-3.2-1.067-5.333v-1.067   c0-1.067,0-2.133,0-3.2c0-14.933-11.733-26.667-26.667-26.667S366.933,24,366.933,38.933v220.8c0,10.667,8.533,19.2,19.2,19.2   c10.667,0,19.2-8.533,19.2-19.2c0-2.133-1.067-5.333-2.133-7.467c-1.067-2.133-1.067-5.333,1.067-7.467   c1.067-1.067,3.2-2.133,4.267-2.133C411.733,244.8,412.8,244.8,412.8,244.8z"
       id="path41" /><path
       style="fill:#F05540;"
       d="M401.067,59.2c-3.2,0-6.4-3.2-6.4-7.467s3.2-6.4,7.467-6.4c11.733,1.067,23.467-4.267,29.867-9.6   c1.067,4.267,1.067,7.467,1.067,11.733c0,1.067-1.067,3.2-1.067,4.267C424.533,56,413.867,60.267,401.067,59.2   C402.133,59.2,401.067,59.2,401.067,59.2z"
       id="path43" /><path
       style="fill:#F05540;"
       d="M434.133,104h-1.067c-3.2,0-6.4-2.133-7.467-5.333c-1.067-4.267,2.133-7.467,5.333-8.533   c18.133-3.2,24.533-14.933,26.667-21.333l0,0c5.333,0,9.6,2.133,12.8,5.333C467.2,85.867,456.533,99.733,434.133,104z"
       id="path45" /><path
       style="fill:#F05540;"
       d="M458.667,92.267V84.8c6.4,5.333,14.933,19.2,6.4,38.4c-1.067,3.2-5.333,5.333-9.6,4.267   c-3.2-2.133-5.333-5.333-4.267-9.6c6.4-14.933-2.133-21.333-3.2-22.4s-2.133-2.133-2.133-3.2L458.667,92.267L458.667,92.267z"
       id="path47" /><path
       style="fill:#F05540;"
       d="M444.8,191.467c-5.333-8.533-5.333-19.2-2.133-30.933c1.067-3.2,5.333-5.333,8.533-4.267   c3.2,1.067,5.333,5.333,4.267,8.533c-2.133,7.467-2.133,13.867,0,19.2c5.333,9.6,19.2,11.733,19.2,11.733   c1.067,0,1.067,0,1.067,1.067c-5.333,3.2-12.8,6.4-19.2,7.467l0,0C453.333,201.067,448,197.867,444.8,191.467z"
       id="path49" /><path
       style="fill:#F05540;"
       d="M412.8,185.067c4.267-10.667,10.667-14.933,16-16c8.533-3.2,16-1.067,20.267,1.067   c0,4.267,2.133,8.533,5.333,12.8l0,0c-2.133,2.133-5.333,2.133-8.533,1.067c0,0-7.467-4.267-12.8-2.133   c-3.2,1.067-5.333,4.267-7.467,8.533c-1.067,3.2-4.267,4.267-6.4,4.267c-1.067,0-2.133,0-2.133,0   C413.867,193.6,411.733,189.333,412.8,185.067z"
       id="path51" /><path
       style="fill:#F05540;"
       d="M411.733,256.533l8.533-1.067c-2.133-8.533-6.4-18.133-12.8-24.533   c-5.333-5.333-11.733-7.467-19.2-7.467c-4.267,0-6.4,3.2-6.4,7.467c0,4.267,3.2,6.4,7.467,6.4c3.2,0,6.4,1.067,9.6,3.2   c3.2,3.2,5.333,8.533,7.467,13.867c2.133,2.133,4.267,3.2,6.4,4.267L411.733,256.533z"
       id="path53" /><path
       style="fill:#F05540;"
       d="M407.467,237.333L407.467,237.333c-3.2-3.2-7.467-5.333-11.733-8.533   c8.533-14.933,25.6-17.067,34.133-16c4.267,1.067,6.4,4.267,6.4,8.533c-1.067,4.267-4.267,6.4-8.533,6.4   C426.667,227.733,412.8,225.6,407.467,237.333z"
       id="path55" /><path
       style="fill:#F05540;"
       d="M381.867,145.6c9.6,5.333,22.4,21.333,12.8,48c-1.067,3.2-5.333,4.267-7.467,4.267   c-3.2-1.067-6.4-5.333-5.333-9.6c8.533-22.4-5.333-29.867-6.4-30.933c-2.133-1.067-3.2-2.133-3.2-4.267   C374.4,150.933,378.667,148.8,381.867,145.6z"
       id="path57" /><path
       style="fill:#F05540;"
       d="M409.6,83.733c2.133,3.2,0,7.467-3.2,9.6c-1.067,0-2.133,1.067-3.2,1.067   c-2.133,0-5.333-1.067-6.4-4.267c-7.467-16-24.533-17.067-34.133-16V60.267C377.6,58.133,398.933,62.4,409.6,83.733z"
       id="path59" /><path
       style="fill:#F05540;"
       d="M374.4,144.533c4.267-4.267,6.4-8.533,6.4-16c0-4.267,3.2-7.467,7.467-7.467   c4.267,0,7.467,3.2,7.467,7.467c0,10.667-3.2,20.267-10.667,26.667c-6.4,6.4-14.933,8.533-22.4,9.6v-14.933   C365.867,149.867,371.2,147.733,374.4,144.533z"
       id="path61" /></g><g
     id="g63"><path
       style="fill:#ffffff;fill-opacity:1"
       d="M176,61.333l-37.333,76.8l-8.533-24.533C80,130.667,49.067,178.667,51.2,228.8   c-6.4-9.6-11.733-19.2-16-30.933C13.867,136,46.933,69.867,108.8,48.533l-8.533-23.467L176,61.333z"
       id="path65" /><path
       style="fill:#ffffff;fill-opacity:1"
       d="M336,451.733L373.333,376l8.533,24.533c50.133-17.067,81.067-65.067,78.933-115.2   c6.4,9.6,11.733,19.2,16,30.933c21.333,61.867-11.733,128-73.6,149.333l8.533,24.533L336,451.733z"
       id="path67" /></g><g
     id="g69" /><g
     id="g71" /><g
     id="g73" /><g
     id="g75" /><g
     id="g77" /><g
     id="g79" /><g
     id="g81" /><g
     id="g83" /><g
     id="g85" /><g
     id="g87" /><g
     id="g89" /><g
     id="g91" /><g
     id="g93" /><g
     id="g95" /><g
     id="g97" /></svg>