<?xml version="1.0" encoding="iso-8859-1"?>
<!-- Generator: Adobe Illustrator 19.0.0, SVG Export Plug-In . SVG Version: 6.00 Build 0)  -->
<svg version="1.1" id="Capa_1" xmlns="http://www.w3.org/2000/svg" xmlns:xlink="http://www.w3.org/1999/xlink" x="0px" y="0px"
	 viewBox="0 0 512 512" style="enable-background:new 0 0 512 512;" xml:space="preserve">
<rect x="425.839" y="146.192" style="fill:#FBB03B;" width="34.839" height="60.968"/>
<rect x="208.088" y="241.999" style="fill:#C7B299;" width="69.678" height="87.097"/>
<circle style="fill:#DA4836;" cx="242.927" cy="137.483" r="130.646"/>
<polygon style="fill:#FBB03B;" points="129.701,302.967 25.193,468.452 234.217,468.452 "/>
<g>
	<rect x="120.991" y="355.225" style="fill:#F15A24;" width="17.419" height="52.258"/>
	<rect x="120.991" y="424.903" style="fill:#F15A24;" width="17.419" height="17.419"/>
</g>
<circle style="fill:#FFFFFF;" cx="242.927" cy="137.483" r="26.129"/>
<circle style="fill:#DA4836;" cx="443.259" cy="137.483" r="34.839"/>
<path style="fill:#B3B3B3;" d="M370.777,372.645h-5.905v-17.419h5.905c35.205-0.044,63.729-28.568,63.772-63.772V207.16h17.419
	v84.293C451.907,336.273,415.588,372.592,370.777,372.645z"/>
<polyline style="fill:#DA4836;" points="155.83,346.516 155.83,311.677 330.033,311.677 330.033,416.193 199.378,416.193 "/>
<g>
	<rect x="190.669" y="337.806" style="fill:#FFFFFF;" width="113.226" height="17.419"/>
	<rect x="216.798" y="372.645" style="fill:#FFFFFF;" width="87.097" height="17.419"/>
</g>
<rect x="330.033" y="337.806" style="fill:#FBB03B;" width="34.839" height="52.258"/>
<g>
	<path style="fill:#F7931E;" d="M86.37,129.226l-17.419-0.871C71.598,77.865,96.072,31.015,136.006,0l10.696,13.744
		C110.783,41.65,88.756,83.796,86.37,129.226z"/>
	<path style="fill:#F7931E;" d="M70.901,164.971c-0.958-6.062-1.603-12.167-1.934-18.29l17.419-0.871
		c0.296,5.539,0.88,11.07,1.742,16.548L70.901,164.971z"/>
	<path style="fill:#F7931E;" d="M418.871,398.042l-6.968-15.956c34.908-15.259,57.475-49.732,57.484-87.829v-52.258h17.419v52.258
		C486.807,339.287,460.129,380.031,418.871,398.042z"/>
	<rect x="68.741" y="494.581" style="fill:#F7931E;" width="165.484" height="17.419"/>
	<rect x="251.636" y="494.581" style="fill:#F7931E;" width="17.419" height="17.419"/>
</g>
<g>
	<path style="fill:#B93D2E;" d="M329.675,129.557c-3.127-32.827-24.405-61.125-55.071-73.231l6.341-16.235
		c36.798,14.545,62.327,48.504,66.081,87.898L329.675,129.557z"/>
	<path style="fill:#B93D2E;" d="M343.515,165.981l-16.757-4.738c1.463-5.174,2.439-10.469,2.918-15.826l17.35,1.55
		C346.442,153.404,345.266,159.762,343.515,165.981z"/>
</g>
<g>
</g>
<g>
</g>
<g>
</g>
<g>
</g>
<g>
</g>
<g>
</g>
<g>
</g>
<g>
</g>
<g>
</g>
<g>
</g>
<g>
</g>
<g>
</g>
<g>
</g>
<g>
</g>
<g>
</g>
</svg>
