<?xml version="1.0"?>
<svg xmlns="http://www.w3.org/2000/svg" xmlns:xlink="http://www.w3.org/1999/xlink" version="1.1" id="Layer_1" x="0px" y="0px" viewBox="0 0 512 512" style="enable-background:new 0 0 512 512;" xml:space="preserve" width="512px" height="512px" class=""><g><g>
	<g>
		<path d="M503.467,392.533H8.533c-4.71,0-8.533,3.567-8.533,7.962V504.03c0,4.403,3.823,7.97,8.533,7.97h494.933    c4.71,0,8.533-3.567,8.533-7.962V400.495C512,396.1,508.177,392.533,503.467,392.533z" data-original="#000000" class="active-path" data-old_color="#ffffff" fill="#ffffff"/>
	</g>
</g><g>
	<g>
		<path d="M494.933,366.933l-42.812-223.42c-0.742-4.045-4.275-6.98-8.388-6.98H409.6V76.8h34.133c4.71,0,8.533-3.823,8.533-8.533    V8.533c0-4.71-3.823-8.533-8.533-8.533H307.2c-4.71,0-8.533,3.823-8.533,8.533v59.733c0,4.71,3.823,8.533,8.533,8.533h34.133    v59.733H196.267v-17.067c0-4.71-3.823-8.533-8.533-8.533H128c-4.71,0-8.533,3.823-8.533,8.533v17.067h-51.2    c-4.113,0-7.646,2.935-8.388,6.98l-42.812,223.42c-0.973,5.248,3.2,8.533,8.533,8.533h460.8    C491.733,375.467,495.906,372.181,494.933,366.933z M358.4,76.8h34.133v59.733H358.4V76.8z M136.533,132.267    c0-2.355,1.911-4.267,4.267-4.267h34.133c2.355,0,4.267,1.911,4.267,4.267V217.6c0,2.355-1.911,4.267-4.267,4.267H140.8    c-2.355,0-4.267-1.911-4.267-4.267V132.267z M213.333,251.733c0,2.355-1.911,4.267-4.267,4.267h-102.4    c-2.355,0-4.267-1.911-4.267-4.267v-25.6c0-2.355,1.911-4.267,4.267-4.267h8.533c2.355,0,4.267,1.911,4.267,4.267v4.267    c0,4.71,3.823,8.533,8.533,8.533h59.733c4.71,0,8.533-3.823,8.533-8.533v-4.267c0-2.355,1.911-4.267,4.267-4.267h8.533    c2.355,0,4.267,1.911,4.267,4.267V251.733z M273.067,349.867H256c-4.719,0-8.533-3.823-8.533-8.533s3.814-8.533,8.533-8.533    h17.067c4.719,0,8.533,3.823,8.533,8.533S277.786,349.867,273.067,349.867z M273.067,315.733H256    c-4.719,0-8.533-3.823-8.533-8.533s3.814-8.533,8.533-8.533h17.067c4.719,0,8.533,3.823,8.533,8.533    S277.786,315.733,273.067,315.733z M273.067,281.6H256c-4.719,0-8.533-3.823-8.533-8.533c0-4.71,3.814-8.533,8.533-8.533h17.067    c4.719,0,8.533,3.823,8.533,8.533C281.6,277.777,277.786,281.6,273.067,281.6z M341.333,349.867h-17.067    c-4.719,0-8.533-3.823-8.533-8.533s3.814-8.533,8.533-8.533h17.067c4.719,0,8.533,3.823,8.533,8.533    S346.052,349.867,341.333,349.867z M341.333,315.733h-17.067c-4.719,0-8.533-3.823-8.533-8.533s3.814-8.533,8.533-8.533h17.067    c4.719,0,8.533,3.823,8.533,8.533S346.052,315.733,341.333,315.733z M341.333,281.6h-17.067c-4.719,0-8.533-3.823-8.533-8.533    c0-4.71,3.814-8.533,8.533-8.533h17.067c4.719,0,8.533,3.823,8.533,8.533C349.867,277.777,346.052,281.6,341.333,281.6z     M409.6,349.867h-17.067c-4.719,0-8.533-3.823-8.533-8.533s3.814-8.533,8.533-8.533H409.6c4.719,0,8.533,3.823,8.533,8.533    S414.319,349.867,409.6,349.867z M409.6,315.733h-17.067c-4.719,0-8.533-3.823-8.533-8.533s3.814-8.533,8.533-8.533H409.6    c4.719,0,8.533,3.823,8.533,8.533S414.319,315.733,409.6,315.733z M409.6,281.6h-17.067c-4.719,0-8.533-3.823-8.533-8.533    c0-4.71,3.814-8.533,8.533-8.533H409.6c4.719,0,8.533,3.823,8.533,8.533C418.133,277.777,414.319,281.6,409.6,281.6z     M418.133,230.4c0,4.71-3.823,8.533-8.533,8.533H256c-4.71,0-8.533-3.823-8.533-8.533v-59.733c0-4.71,3.823-8.533,8.533-8.533    h153.6c4.71,0,8.533,3.823,8.533,8.533V230.4z" data-original="#000000" class="active-path" data-old_color="#ffffff" fill="#ffffff"/>
	</g>
</g><g>
	<g>
		<path d="M396.8,179.2h-128c-2.355,0-4.267,1.911-4.267,4.267V217.6c0,2.355,1.911,4.267,4.267,4.267h128    c2.355,0,4.267-1.911,4.267-4.267v-34.133C401.067,181.112,399.155,179.2,396.8,179.2z" data-original="#000000" class="active-path" data-old_color="#ffffff" fill="#ffffff"/>
	</g>
</g></g> </svg>
