<?xml version="1.0"?>
<svg xmlns="http://www.w3.org/2000/svg" xmlns:xlink="http://www.w3.org/1999/xlink" version="1.1" id="Capa_1" x="0px" y="0px" width="512px" height="512px" viewBox="0 0 508.813 508.813" style="enable-background:new 0 0 508.813 508.813;" xml:space="preserve" class=""><g><g>
	<g>
		<path d="M479.073,409.127H29.741c-5.372,0-9.727,4.355-9.727,9.728v80.231c0,5.371,4.354,9.728,9.727,9.728h449.332    c5.373,0,9.727-4.355,9.727-9.728v-80.231C488.799,413.482,484.446,409.127,479.073,409.127z M301.407,454.406h-94    c-8.284,0-15-6.716-15-15s6.716-15,15-15h94c8.285,0,15,6.716,15,15S309.692,454.406,301.407,454.406z" data-original="#000000" class="active-path" data-old_color="#ffffff" fill="#ffffff"/>
		<path d="M38.407,398.209h432c8.285,0,15-6.717,15-15l-20-282c0-8.285-6.715-15-15-15h-87.076V68.81h47.154    c5.045,0,9.135-4.088,9.135-9.133v-5.48V14.615v-5.48c0-5.045-4.09-9.135-9.135-9.135H265.519c-5.044,0-9.135,4.09-9.135,9.135    v5.48v45.063c0,5.045,4.091,9.133,9.135,9.133h47.153v17.397H58.407c-8.284,0-15,6.715-15,15l-20,282    C23.407,391.492,30.123,398.209,38.407,398.209z M318.629,245.153c-0.631,7.896-0.945,11.843-1.578,19.735    c-0.334,4.16-3.752,7.535-7.633,7.535c-8.155,0-16.311,0-24.465,0.002c-3.881,0-6.465-3.377-5.773-7.537    c1.312-7.894,1.967-11.84,3.277-19.735c0.691-4.161,4.154-7.536,7.732-7.536c7.52,0,15.041,0,22.561,0    C316.331,237.617,318.961,240.992,318.629,245.153z M367.167,371.875c-9.969,0.002-19.938,0.002-29.906,0    c-4.742,0-8.443-3.371-8.264-7.533c0.34-7.895,0.51-11.846,0.85-19.74c0.18-4.159,3.926-7.532,8.367-7.532    c9.334,0,18.668,0,28.002,0c4.441,0,8.188,3.373,8.367,7.532c0.34,7.896,0.51,11.847,0.85,19.74    C375.612,368.504,371.911,371.875,367.167,371.875z M339.573,287.342c8.428,0,16.854,0,25.281,0c4.012,0,7.404,3.375,7.586,7.535    c0.34,7.896,0.51,11.842,0.85,19.737c0.178,4.161-3.17,7.534-7.482,7.534c-9.062,0-18.125,0-27.188,0    c-4.312,0-7.662-3.373-7.48-7.534c0.34-7.896,0.51-11.843,0.85-19.737C332.168,290.717,335.563,287.342,339.573,287.342z     M333.28,264.889c0.34-7.894,0.51-11.84,0.85-19.735c0.18-4.161,3.227-7.536,6.805-7.536c7.521,0,15.041,0,22.562,0    c3.578,0,6.625,3.375,6.803,7.536c0.342,7.896,0.512,11.843,0.852,19.735c0.18,4.16-2.822,7.535-6.703,7.535    c-8.154,0-16.309,0-24.465,0C336.102,272.426,333.1,269.051,333.28,264.889z M385.799,245.153    c-0.332-4.161,2.299-7.536,5.877-7.536c7.521,0,15.043,0,22.564,0c3.578,0,7.039,3.375,7.73,7.536    c1.311,7.896,1.967,11.843,3.277,19.735c0.691,4.16-1.895,7.535-5.773,7.535c-8.156,0-16.312,0-24.469,0    c-3.881,0-7.297-3.375-7.629-7.535C386.747,256.996,386.43,253.049,385.799,245.153z M438.493,344.602    c1.312,7.895,1.967,11.846,3.279,19.74c0.689,4.16-2.594,7.532-7.338,7.532c-9.971,0-19.939,0-29.908,0    c-4.744,0-8.861-3.372-9.193-7.532c-0.631-7.896-0.947-11.847-1.578-19.74c-0.332-4.16,2.998-7.533,7.439-7.533    c9.334,0.001,18.67,0.001,28.004,0C433.639,337.068,437.801,340.441,438.493,344.602z M426.954,322.148    c-9.062,0-18.125,0-27.188,0c-4.314,0-8.08-3.373-8.412-7.534c-0.631-7.896-0.945-11.843-1.578-19.737    c-0.332-4.16,2.646-7.535,6.656-7.535c8.43,0,16.855,0,25.285,0c4.01,0,7.82,3.375,8.514,7.535    c1.311,7.896,1.967,11.842,3.277,19.737C434.2,318.775,431.264,322.148,426.954,322.148z M272.241,114.875c0-2.762,2.238-5,5-5    h148c2.762,0,5,2.238,5,5v92c0,2.762-2.238,5-5,5h-148c-2.762,0-5-2.238-5-5V114.875z M270.917,314.614    c1.312-7.896,1.971-11.843,3.281-19.737c0.691-4.16,4.504-7.535,8.514-7.535c8.428,0,16.855,0,25.281,0    c4.012,0,6.99,3.375,6.658,7.535c-0.631,7.896-0.947,11.842-1.578,19.737c-0.334,4.161-4.1,7.534-8.41,7.534    c-9.063,0-18.125,0-27.188,0.001C273.163,322.149,270.226,318.775,270.917,314.614z M262.657,364.342    c1.312-7.895,1.969-11.846,3.279-19.74c0.691-4.159,4.854-7.532,9.295-7.532c9.336,0.001,18.668,0,28.004,0    c4.439,0,7.77,3.373,7.438,7.532c-0.631,7.896-0.945,11.847-1.578,19.74c-0.334,4.162-4.448,7.533-9.191,7.533    c-9.97,0-19.938,0-29.908,0C265.252,371.875,261.967,368.504,262.657,364.342z M155.241,114.875c0-2.762,2.238-5,5-5h50    c2.762,0,5,2.238,5,5v92c0,2.762-2.238,5-5,5h-50c-2.762,0-5-2.238-5-5V114.875z M78.573,114.875c0-2.762,2.238-5,5-5h50    c2.762,0,5,2.238,5,5v92c0,2.762-2.238,5-5,5h-50c-2.762,0-5-2.238-5-5V114.875z" data-original="#000000" class="active-path" data-old_color="#ffffff" fill="#ffffff"/>
	</g>
</g></g> </svg>
