<?xml version="1.0"?>
<svg xmlns="http://www.w3.org/2000/svg" xmlns:xlink="http://www.w3.org/1999/xlink" version="1.1" id="Capa_1" x="0px" y="0px" viewBox="0 0 490 490" style="enable-background:new 0 0 490 490;" xml:space="preserve" width="512px" height="512px" class=""><g><g>
	<g>
		<g>
			<polygon points="409.1,116.7 367.1,116.7 367.1,87.5 409.1,87.5 409.1,0 262.5,0 262.5,87.5 304.9,87.5 304.9,116.7 79.3,116.7      79.3,206.5 409.1,206.5    " data-original="#000000" class="active-path" data-old_color="#ffffff" fill="#ffffff"/>
			<path d="M414.9,225.9H75.1L4.3,384.6h481.4L414.9,225.9z M110.4,367.1H76.6c-5.4,0-9.7-4.3-9.7-9.7c0-5.4,4.3-9.7,9.7-9.7h33.8     c5.4,0,9.7,4.3,9.7,9.7C120.2,362.8,115.5,367.1,110.4,367.1z M127.6,332.5H98c-5.4,0-9.7-4.3-9.7-9.7s4.3-9.7,9.7-9.7h29.6     c5.4,0,9.7,4.3,9.7,9.7S133,332.5,127.6,332.5z M140.8,297.9h-26.1c-5.4,0-9.7-4.3-9.7-9.7s4.3-9.7,9.7-9.7h26.1     c5.4,0,9.7,4.3,9.7,9.7S146.2,297.9,140.8,297.9z M151.7,262.9h-23.3c-5.4,0-9.7-4.3-9.7-9.7s4.3-9.7,9.7-9.7h23.3     c5.4,0,9.7,4.3,9.7,9.7S157.1,262.9,151.7,262.9z M211.6,367.1h-33.8c-5.4,0-9.7-4.3-9.7-9.7c0-5.4,4.3-9.7,9.7-9.7h33.8     c5.4,0,9.7,4.3,9.7,9.7C221.3,362.8,216.6,367.1,211.6,367.1z M215.8,332.5h-29.6c-5.4,0-9.7-4.3-9.7-9.7s4.3-9.7,9.7-9.7h29.6     c5.4,0,9.7,4.3,9.7,9.7S220.9,332.5,215.8,332.5z M218.9,297.9h-26.1c-5.4,0-9.7-4.3-9.7-9.7s4.3-9.7,9.7-9.7h26.1     c5.4,0,9.7,4.3,9.7,9.7S224.4,297.9,218.9,297.9z M221.7,262.9h-23.3c-5.4,0-9.7-4.3-9.7-9.7s4.3-9.7,9.7-9.7h23.3     c5.4,0,9.7,4.3,9.7,9.7S227.1,262.9,221.7,262.9z M268.3,243.4h23.3c5.4,0,9.7,4.3,9.7,9.7s-4.3,9.7-9.7,9.7h-23.3     c-5.4,0-9.7-4.3-9.7-9.7S262.9,243.4,268.3,243.4z M261.3,288.2c0-5.4,4.3-9.7,9.7-9.7h26.1c5.4,0,9.7,4.3,9.7,9.7     s-4.3,9.7-9.7,9.7H271C265.6,297.9,261.3,293.2,261.3,288.2z M264.4,322.8c0-5.4,4.3-9.7,9.7-9.7h29.6c5.4,0,9.7,4.3,9.7,9.7     s-4.3,9.7-9.7,9.7h-29.6C269.1,332.5,264.4,328.2,264.4,322.8z M312.7,367.1h-33.8c-5.4,0-9.7-4.3-9.7-9.7c0-5.4,4.3-9.7,9.7-9.7     h33.8c5.4,0,9.7,4.3,9.7,9.7C322.4,362.8,317.7,367.1,312.7,367.1z M328.6,253.2c0-5.4,4.3-9.7,9.7-9.7h23.3     c5.4,0,9.7,4.3,9.7,9.7s-4.3,9.7-9.7,9.7h-23.3C332.9,262.9,328.6,258.6,328.6,253.2z M339.5,288.2c0-5.4,4.3-9.7,9.7-9.7h26.1     c5.4,0,9.7,4.3,9.7,9.7s-4.3,9.7-9.7,9.7h-26.1C343.8,297.9,339.5,293.2,339.5,288.2z M352.7,322.8c0-5.4,4.3-9.7,9.7-9.7H392     c5.4,0,9.7,4.3,9.7,9.7s-4.3,9.7-9.7,9.7h-29.6C357,332.5,352.7,328.2,352.7,322.8z M413.8,367.1H380c-5.4,0-9.7-4.3-9.7-9.7     c0-5.4,4.3-9.7,9.7-9.7h33.8c5.4,0,9.7,4.3,9.7,9.7C423.5,362.8,418.8,367.1,413.8,367.1z" data-original="#000000" class="active-path" data-old_color="#ffffff" fill="#ffffff"/>
			<path d="M0,404.1V490h490v-85.9H0z M245,465.5c-12.8,0-23.3-10.5-23.3-23.3s10.5-23.3,23.3-23.3c12.8,0,23.3,10.5,23.3,23.3     S257.8,465.5,245,465.5z" data-original="#000000" class="active-path" data-old_color="#ffffff" fill="#ffffff"/>
		</g>
	</g>
</g></g> </svg>
