<?xml version="1.0"?>
<svg xmlns="http://www.w3.org/2000/svg" xmlns:xlink="http://www.w3.org/1999/xlink" version="1.1" id="Capa_1" x="0px" y="0px" viewBox="0 0 490 490" style="enable-background:new 0 0 490 490;" xml:space="preserve" width="512px" height="512px" class=""><g><g>
	<g>
		<polygon points="337.6,174.6 184.7,327.1 241.9,327.1 241.9,484.6 432.8,484.6 432.8,327.1 490,327.1   " data-original="#000000" class="active-path" data-old_color="#ffffff" fill="#ffffff"/>
		<path d="M356.6,162.9C345.7,74.3,270.3,5.4,178.9,5.4C80.1,5.4,0,85.6,0,184.3s80.1,178.9,178.9,178.9c14.4,0,28-1.6,41.6-5.1    v-9.7h-87.9l204.9-204.6L356.6,162.9z M191.4,239.9v9.1c0,7.3-5.9,13.1-13.1,13.1c-7.3,0-13.1-5.9-13.1-13.1v-9.1    c-7.7-2.3-14.7-6.6-20.3-12.5c-5-5.3-4.7-13.6,0.6-18.6s13.6-4.7,18.6,0.6c3.8,4,8.8,6.2,14.3,6.2c10.8,0,19.7-8.8,19.7-19.7    c0-10.8-8.8-19.7-19.7-19.7c-25.3,0-45.9-20.6-45.9-45.9c0-20.8,13.9-38.3,32.8-44v-9.1c0-7.3,5.9-13.1,13.1-13.1    c7.3,0,13.1,5.9,13.1,13.1v9.1c7.7,2.3,14.7,6.6,20.3,12.5c5,5.3,4.7,13.6-0.6,18.6c-5.3,5-13.6,4.7-18.6-0.6    c-3.8-4-8.8-6.2-14.3-6.2c-10.8,0-19.7,8.8-19.7,19.7c0,10.8,8.8,19.7,19.7,19.7c25.3,0,45.9,20.6,45.9,45.9    C224.2,216.7,210.4,234.3,191.4,239.9z" data-original="#000000" class="active-path" data-old_color="#ffffff" fill="#ffffff"/>
	</g>
</g></g> </svg>
