<?xml version="1.0"?>
<svg xmlns="http://www.w3.org/2000/svg" xmlns:xlink="http://www.w3.org/1999/xlink" version="1.1" id="Capa_1" x="0px" y="0px" viewBox="0 0 512 512" style="enable-background:new 0 0 512 512;" xml:space="preserve" width="512px" height="512px" class=""><g><g>
	<g>
		<path d="M435.464,225.796v251.015H76.536V225.796H41.347v268.609c0,9.718,7.876,17.594,17.594,17.594h394.117    c9.718,0,17.594-7.876,17.594-17.594V225.796H435.464z" data-original="#000000" class="active-path" data-old_color="#ffffff" fill="#ffffff"/>
	</g>
</g><g>
	<g>
		<path d="M482.969,96.183H29.031c-9.718,0-17.595,7.876-17.595,17.594v112.018c0,9.718,7.876,17.595,17.595,17.595h453.938    c9.718,0,17.594-7.876,17.594-17.595V113.778C500.564,104.06,492.687,96.183,482.969,96.183z M465.375,208.202H46.625v-76.829    h418.749V208.202z" data-original="#000000" class="active-path" data-old_color="#ffffff" fill="#ffffff"/>
	</g>
</g><g>
	<g>
		<path d="M165.095,0c-34.925,0-63.34,29.201-63.34,65.1c0,36.544,28.415,66.273,63.34,66.273V96.183    c-15.26,0-28.151-14.234-28.151-31.084c0-16.492,12.627-29.911,27.999-29.911c52.877,0.457,73.78,81.427,73.973,82.219    l34.163-8.434C271.993,104.552,245.426,0.698,165.095,0z" data-original="#000000" class="active-path" data-old_color="#ffffff" fill="#ffffff"/>
	</g>
</g><g>
	<g>
		<path d="M346.752,0c-80.178,0.698-106.746,104.552-107.837,108.974l34.163,8.434c0.205-0.821,21.653-81.762,73.827-82.219    c15.524,0,28.151,13.419,28.151,29.911c0,16.85-12.891,31.084-28.151,31.084v35.189c34.925,0,63.34-29.729,63.34-66.273    C410.245,29.201,381.83,0,346.752,0z" data-original="#000000" class="active-path" data-old_color="#ffffff" fill="#ffffff"/>
	</g>
</g><g>
	<g>
		<rect x="273.594" y="113.778" width="35.189" height="380.628" data-original="#000000" class="active-path" data-old_color="#ffffff" fill="#ffffff"/>
	</g>
</g><g>
	<g>
		<rect x="203.216" y="113.778" width="35.189" height="380.628" data-original="#000000" class="active-path" data-old_color="#ffffff" fill="#ffffff"/>
	</g>
</g></g> </svg>
