<?xml version="1.0"?>
<svg xmlns="http://www.w3.org/2000/svg" id="Capa_1" enable-background="new 0 0 511.85 511.85" height="512px" viewBox="0 0 511.85 511.85" width="512px" class=""><g><g id="XMLID_318_"><path id="XMLID_1281_" d="m240.85.276h-240.85v249.17h240.85zm-118.674 197.783h-30v-28.87h30zm0-77.254v18.391h-30v-48.387h29.413c6.132 0 11.121-4.989 11.121-11.121s-4.989-11.122-11.121-11.122h-29.413v-30h29.413c22.674 0 41.121 18.447 41.121 41.121 0 22.478-18.13 40.802-40.534 41.118z" data-original="#000000" class="active-path" data-old_color="#000000" fill="#1C1E1F"/><path id="XMLID_1284_" d="m133.617 382.372-15.654-22.498-15.656 22.498-17.749 4.661 15.113 14.78-2.803 26.389 21.095-9.902 21.094 9.902-2.802-26.389 15.111-14.779z" data-original="#000000" class="active-path" data-old_color="#000000" fill="#1C1E1F"/><path id="XMLID_1288_" d="m0 279.445v232.129h240.85v-232.129zm117.963 171.996-56.55 26.544 6.891-64.887-42.567-41.631 58.26-15.303 33.967-48.813 33.967 48.813 58.259 15.303-42.566 41.632 6.89 64.887z" data-original="#000000" class="active-path" data-old_color="#000000" fill="#1C1E1F"/><path id="XMLID_1294_" d="m511.85 249.445v-249.169h-241v249.17h241zm-117.962-217.942 33.968 48.813 58.259 15.304-42.567 41.631 6.891 64.887-56.55-26.544-56.549 26.544 6.89-64.887-42.566-41.631 58.259-15.304z" data-original="#000000" class="active-path" data-old_color="#000000" fill="#1C1E1F"/><path id="XMLID_1295_" d="m372.794 152.354 21.094-9.902 21.094 9.902-2.802-26.389 15.112-14.779-17.749-4.662-15.655-22.498-15.655 22.498-17.749 4.662 15.112 14.779z" data-original="#000000" class="active-path" data-old_color="#000000" fill="#1C1E1F"/><path id="XMLID_1298_" d="m270.85 511.575h241v-232.13h-241zm95.276-143.286h29.413c6.132 0 11.121-4.989 11.121-11.122s-4.989-11.122-11.121-11.122h-29.413v-30h29.413c22.674 0 41.121 18.447 41.121 41.122 0 22.478-18.13 40.802-40.534 41.118v18.391h-30zm30 78.38v28.87h-30v-28.87z" data-original="#000000" class="active-path" data-old_color="#000000" fill="#1C1E1F"/></g></g> </svg>
