<?xml version="1.0"?>
<svg xmlns="http://www.w3.org/2000/svg" height="512px" viewBox="0 0 64 64" width="512px"><g><g id="Ecology_Car" data-name="Ecology Car"><path d="m32.78 9h-3.96l-.6 3h3.96z" data-original="#000000" class="active-path" data-old_color="#000000" fill="#1C1E1F"/><path d="m44.59 9h-3.18l-.3 3h3.78z" data-original="#000000" class="active-path" data-old_color="#000000" fill="#1C1E1F"/><path d="m45.59 19h-5.18l-.3 3h5.78z" data-original="#000000" class="active-path" data-old_color="#000000" fill="#1C1E1F"/><path d="m50.78 7-.6-3h-4.07l.3 3z" data-original="#000000" class="active-path" data-old_color="#000000" fill="#1C1E1F"/><path d="m38.59 17 .3-3h-5.07l-.6 3z" data-original="#000000" class="active-path" data-old_color="#000000" fill="#1C1E1F"/><path d="m33.78 4h-3.96l-.6 3h3.96z" data-original="#000000" class="active-path" data-old_color="#000000" fill="#1C1E1F"/><path d="m39.39 9h-4.57l-.6 3h4.87z" data-original="#000000" class="active-path" data-old_color="#000000" fill="#1C1E1F"/><path d="m39.89 4h-4.07l-.6 3h4.37z" data-original="#000000" class="active-path" data-old_color="#000000" fill="#1C1E1F"/><path d="m44.09 4h-2.18l-.3 3h2.78z" data-original="#000000" class="active-path" data-old_color="#000000" fill="#1C1E1F"/><path d="m38.78 28-.5 2h9.44l-.5-2z" data-original="#000000" class="active-path" data-old_color="#000000" fill="#1C1E1F"/><path d="m53.18 19h-5.57l.3 3h5.87z" data-original="#000000" class="active-path" data-old_color="#000000" fill="#1C1E1F"/><path d="m32.22 22h5.87l.3-3h-5.57z" data-original="#000000" class="active-path" data-old_color="#000000" fill="#1C1E1F"/><path d="m55.82 22h3.9l-.75-3h-3.75z" data-original="#000000" class="active-path" data-old_color="#000000" fill="#1C1E1F"/><path d="m54.82 17h3.65l-.75-3h-3.5z" data-original="#000000" class="active-path" data-old_color="#000000" fill="#1C1E1F"/><path d="m47.41 17h5.37l-.6-3h-5.07z" data-original="#000000" class="active-path" data-old_color="#000000" fill="#1C1E1F"/><path d="m55.97 7-.75-3h-3l.6 3z" data-original="#000000" class="active-path" data-old_color="#000000" fill="#1C1E1F"/><path d="m46.91 12h4.87l-.6-3h-4.57z" data-original="#000000" class="active-path" data-old_color="#000000" fill="#1C1E1F"/><path d="m53.82 12h3.4l-.75-3h-3.25z" data-original="#000000" class="active-path" data-old_color="#000000" fill="#1C1E1F"/><path d="m45.09 14h-4.18l-.3 3h4.78z" data-original="#000000" class="active-path" data-old_color="#000000" fill="#1C1E1F"/><path d="m12 51h-5v1a1 1 0 0 0 1 1h5v-1a1 1 0 0 0 -1-1z" data-original="#000000" class="active-path" data-old_color="#000000" fill="#1C1E1F"/><path d="m14 44a1 1 0 0 0 -1 1v1h6v-1a1 1 0 0 0 -1-1z" data-original="#000000" class="active-path" data-old_color="#000000" fill="#1C1E1F"/><path d="m35 52v1h5a1 1 0 0 0 1-1v-1h-5a1 1 0 0 0 -1 1z" data-original="#000000" class="active-path" data-old_color="#000000" fill="#1C1E1F"/><path d="m5.41 48-1.41 1.41v6.59h1a1 1 0 0 1 1 1v2a1 1 0 0 0 1 1h2a1 1 0 0 0 1-1v-2a1 1 0 0 1 1-1h26a1 1 0 0 1 1 1v2a1 1 0 0 0 1 1h2a1 1 0 0 0 1-1v-2a1 1 0 0 1 1-1h1v-6.59l-1.41-1.41zm9.59 6a1 1 0 0 1 -1 1h-6a3.009 3.009 0 0 1 -3-3v-2a1 1 0 0 1 1-1h6a3.009 3.009 0 0 1 3 3zm4-1h-2v-2h2zm8 0h-6v-2h6zm4 0h-2v-2h2zm12-3v2a3.009 3.009 0 0 1 -3 3h-6a1 1 0 0 1 -1-1v-2a3.009 3.009 0 0 1 3-3h6a1 1 0 0 1 1 1z" data-original="#000000" class="active-path" data-old_color="#000000" fill="#1C1E1F"/><path d="m30.78 19h-3.96l-.6 3h3.96z" data-original="#000000" class="active-path" data-old_color="#000000" fill="#1C1E1F"/><path d="m31.78 14h-3.96l-.6 3h3.96z" data-original="#000000" class="active-path" data-old_color="#000000" fill="#1C1E1F"/><path d="m11 45a3.009 3.009 0 0 1 3-3h4a3.009 3.009 0 0 1 3 3v1h6v-1a3.009 3.009 0 0 1 3-3h4a3.009 3.009 0 0 1 3 3v1h3.52l-.93-2.34a8.966 8.966 0 0 0 -8.36-5.66h-14.46a8.966 8.966 0 0 0 -8.36 5.66l-.93 2.34h3.52z" data-original="#000000" class="active-path" data-old_color="#000000" fill="#1C1E1F"/><path d="m30 44a1 1 0 0 0 -1 1v1h6v-1a1 1 0 0 0 -1-1z" data-original="#000000" class="active-path" data-old_color="#000000" fill="#1C1E1F"/><path d="m44 44.59-1.42 1.41h.84l1 1 1.29-1.29a1.033 1.033 0 0 0 .29-.71v-2h-2z" data-original="#000000" class="active-path" data-old_color="#000000" fill="#1C1E1F"/><path d="m5.42 46-1.42-1.41v-1.59h-2v2a1.033 1.033 0 0 0 .29.71l1.29 1.29 1-1z" data-original="#000000" class="active-path" data-old_color="#000000" fill="#1C1E1F"/><path d="m42 24h2v2h-2z" data-original="#000000" class="active-path" data-old_color="#000000" fill="#1C1E1F"/><path d="m61 28h-6v2h5v22h-12v2h13a1 1 0 0 0 1-1v-24a1 1 0 0 0 -1-1z" data-original="#000000" class="active-path" data-old_color="#000000" fill="#1C1E1F"/><path d="m51 28h2v2h-2z" data-original="#000000" class="active-path" data-old_color="#000000" fill="#1C1E1F"/></g></g> </svg>
