<?xml version="1.0"?>
<svg xmlns="http://www.w3.org/2000/svg" xmlns:xlink="http://www.w3.org/1999/xlink" version="1.1" id="Capa_1" x="0px" y="0px" viewBox="0 0 512 512" style="enable-background:new 0 0 512 512;" xml:space="preserve" width="512px" height="512px"><g><g>
	<g>
		<path d="M201.539,17.43l-14.69,26.236l24.912,13.95c-39.327,9.833-75.273,30.476-104.065,60.27    c-39.659,41.041-61.5,95.081-61.5,152.168c0,6.048,0.255,12.073,0.745,18.064c8.417-8.502,18.349-15.5,29.354-20.552    c0.623-48.329,19.389-93.978,53.024-128.786c25.408-26.294,57.27-44.329,92.103-52.568L198.28,114.08l23.133,19.21l59.366-71.49    L201.539,17.43z" data-original="#000000" class="active-path" data-old_color="#706f6f" fill="#706f6f"/>
	</g>
</g><g>
	<g>
		<path d="M483.639,253.369h-30.158c0.426,5.201,0.648,10.431,0.648,15.682c0,45.405-16.341,89.291-46.014,123.576    c-21.289,24.598-48.406,43.143-78.51,54.073l19.818-31.008l-25.335-16.193l-50.044,78.3L358.174,512l11.325-27.855l-25.967-10.556    c33.429-12.822,63.523-33.788,87.321-61.284c34.401-39.748,53.347-90.623,53.347-143.254    C484.199,263.805,484.008,258.575,483.639,253.369z" data-original="#000000" class="active-path" data-old_color="#706f6f" fill="#706f6f"/>
	</g>
</g><g>
	<g>
		<path d="M170.256,403.875c10.65-12.234,17.122-28.196,17.122-45.652c0-38.393-31.234-69.627-69.627-69.627    c-38.392,0-69.626,31.234-69.626,69.627c0,17.491,6.497,33.483,17.185,45.726c-37.719,14.016-64.668,50.375-64.668,92.914v15.034    h234.473v-15.034C235.117,454.25,208.078,417.838,170.256,403.875z" data-original="#000000" class="active-path" data-old_color="#706f6f" fill="#706f6f"/>
	</g>
</g><g>
	<g>
		<path d="M446.497,115.279c10.65-12.233,17.122-28.197,17.122-45.652C463.619,31.234,432.385,0,393.992,0    c-38.393,0-69.627,31.234-69.627,69.626c0,17.491,6.497,33.483,17.186,45.726c-37.719,14.016-64.667,50.375-64.667,92.915v15.034    h234.473v-15.034C511.357,165.655,484.318,129.242,446.497,115.279z" data-original="#000000" class="active-path" data-old_color="#706f6f" fill="#706f6f"/>
	</g>
</g></g> </svg>
