<?xml version="1.0"?>
<svg xmlns="http://www.w3.org/2000/svg" viewBox="0 0 512 512" width="512px" height="512px" class=""><g><g id="Solid"><path d="M304,336v8H280V323.288a64.051,64.051,0,0,0,39.821-55.75l18.23-7.284,42.566,69.717A61.732,61.732,0,0,0,372.712,344H352v-8a24,24,0,0,0-48,0Zm-172.629-6.008,42.578-69.738,18.23,7.284A64.051,64.051,0,0,0,232,323.288V344H139.288A63.9,63.9,0,0,0,131.371,329.992Zm68-111.277,46.191-75.644a59.1,59.1,0,0,0,20.876,0l46.191,75.644-8.4,3.343a63.746,63.746,0,0,0-96.45,0ZM208,264a48,48,0,1,1,48,48A48.052,48.052,0,0,1,208,264Zm144,96h16.573a56.328,56.328,0,0,0,0,16H352Zm40.079-41.959-43.891-71.889a8,8,0,0,0-9.8-3.261l-19.778,7.9a63.35,63.35,0,0,0-5.313-15.123l14.055-5.593a8,8,0,0,0,3.872-11.6L282.269,138.3a64.1,64.1,0,0,0,13.645-8.351L405.725,309.7A60.994,60.994,0,0,0,392.079,318.041ZM256,32a48,48,0,1,1-48,48A48.052,48.052,0,0,1,256,32Zm-39.914,97.945a64.1,64.1,0,0,0,13.645,8.351l-48.958,80.177a8,8,0,0,0,3.872,11.6l14.055,5.593a63.35,63.35,0,0,0-5.313,15.123l-19.778-7.9a8,8,0,0,0-9.8,3.261l-43.9,71.9a64.041,64.041,0,0,0-13.641-8.349ZM143.444,376a25.046,25.046,0,0,0,0-16H240a8,8,0,0,0,8-8V327.444a57.832,57.832,0,0,0,16,0V352a8,8,0,0,0,8,8h32v16ZM432,480H314.562l-47.714-33.62a6.965,6.965,0,0,1-1.593-9.8h0a6.965,6.965,0,0,1,9.245-1.83l33.383,20.109A8,8,0,0,0,320,448V336.284a8.189,8.189,0,0,1,7.45-8.265A8.009,8.009,0,0,1,336,336v63.713a8.191,8.191,0,0,0,7.585,8.276,8,8,0,0,0,8.41-7.708c.143-4.144,3.036-7.812,7.16-8.237A8.011,8.011,0,0,1,368,399.769a8.261,8.261,0,0,0,7.15,8.187,8,8,0,0,0,8.85-7.747,8.247,8.247,0,0,1,7.158-8.165,8.01,8.01,0,0,1,8.84,7.673c.151,4.3,3.3,8.057,7.594,8.273A8,8,0,0,0,416,399.95a7.042,7.042,0,0,1,.8-3.583,8.175,8.175,0,0,1,8.6-4.254c3.7.606,6.6,4.446,6.6,8.742Zm48-112a48.127,48.127,0,0,1-32,45.149V400.855c0-12.125-8.609-22.671-20.027-24.531a24.092,24.092,0,0,0-19.516,5.391c-.16.133-.312.265-.465.4a23.381,23.381,0,0,0-23.015-4.967A47.956,47.956,0,1,1,480,368ZM32,368a48,48,0,1,1,48,48A48,48,0,0,1,32,368Z" data-original="#000000" class="active-path" data-old_color="#000000" fill="#1C1E1F"/></g></g> </svg>
