<?xml version="1.0"?>
<svg xmlns="http://www.w3.org/2000/svg" xmlns:xlink="http://www.w3.org/1999/xlink" version="1.1" id="Capa_1" x="0px" y="0px" viewBox="0 0 512 512" style="enable-background:new 0 0 512 512;" xml:space="preserve" width="512px" height="512px" class=""><g><path style="fill:#A4D3EA" d="M500.757,348.501L419.691,114.24C409.276,84.157,380.933,63.986,349.099,64H162.901  c-31.819,0.004-60.14,20.172-70.549,50.24L11.243,348.501c-1.932,5.565,1.013,11.643,6.578,13.575  c1.13,0.392,2.317,0.592,3.513,0.59h469.333c5.891,0.008,10.673-4.762,10.681-10.653  C501.349,350.818,501.15,349.631,500.757,348.501z" data-original="#455A64" class="" data-old_color="#8EBCD3"/><path style="fill:#FAFAFA;" d="M330.667,149.333c-1.941,0-3.883,0-5.781,0.277c-29.121-44.094-88.474-56.233-132.568-27.112  c-24.062,15.891-39.673,41.786-42.493,70.483c-28.913,5.624-47.793,33.623-42.168,62.536c4.874,25.056,26.818,43.146,52.344,43.149  h170.667c41.237,0,74.667-33.429,74.667-74.667S371.904,149.333,330.667,149.333z" data-original="#FAFAFA" class=""/><path style="fill:#84B3C9" d="M448,320H64c-35.346,0-64,28.654-64,64s28.654,64,64,64h384c35.346,0,64-28.654,64-64  S483.346,320,448,320z" data-original="#607D8B" class="" data-old_color="#91BDD2"/><path style="fill:#FFC107;" d="M75.093,405.333c-5.891,0-10.667-4.776-10.667-10.667c-0.001-5.809,4.646-10.551,10.453-10.667h0.213  c5.891,0,10.667,4.776,10.667,10.667S80.984,405.333,75.093,405.333z" data-original="#FFC107"/><path style="fill:#85F388" d="M448,405.333c-11.782,0-21.333-9.551-21.333-21.333c0-11.782,9.551-21.333,21.333-21.333  c11.782,0,21.333,9.551,21.333,21.333C469.333,395.782,459.782,405.333,448,405.333z" data-original="#4CAF50" class="active-path" data-old_color="#6CDA6F"/><path style="fill:#FFC107;" d="M117.76,405.333c-5.891,0-10.667-4.776-10.667-10.667c-0.001-5.809,4.646-10.551,10.453-10.667h0.213  c5.891,0,10.667,4.776,10.667,10.667S123.651,405.333,117.76,405.333L117.76,405.333z" data-original="#FFC107"/></g> </svg>
