<?xml version="1.0" encoding="iso-8859-1"?>
<!-- Generator: Adobe Illustrator 19.0.0, SVG Export Plug-In . SVG Version: 6.00 Build 0)  -->
<svg version="1.1" id="Capa_1" xmlns="http://www.w3.org/2000/svg" xmlns:xlink="http://www.w3.org/1999/xlink" x="0px" y="0px"
	 viewBox="0 0 58 58" style="enable-background:new 0 0 58 58;" xml:space="preserve">
<path style="fill:#D1D4D1;" d="M34.907,48c-0.208,0.58-0.758,1-1.407,1h-8c-0.649,0-1.2-0.42-1.407-1H0.578
	C0.259,48,0,48.259,0,48.578v2.844C0,51.741,0.259,52,0.578,52h56.844C57.741,52,58,51.741,58,51.422v-2.844
	C58,48.259,57.741,48,57.422,48H34.907z"/>
<path style="fill:#ECF0F1;" d="M24.093,48c0.208,0.58,0.758,1,1.407,1h8c0.649,0,1.2-0.42,1.407-1H55V9.067
	C55,7.373,53.627,6,51.933,6H6.067C4.373,6,3,7.373,3,9.067V48H24.093z"/>
<rect x="6" y="9" style="fill:#8697CB;" width="46" height="36"/>
<rect x="21" y="25" style="fill:#F0C419;" width="15" height="12"/>
<path style="fill:none;stroke:#556080;stroke-width:2;stroke-linejoin:round;stroke-miterlimit:10;" d="M24,25v-3.5
	c0-2.475,2.025-4.5,4.5-4.5h0c2.475,0,4.5,2.025,4.5,4.5V25"/>
<g>
</g>
<g>
</g>
<g>
</g>
<g>
</g>
<g>
</g>
<g>
</g>
<g>
</g>
<g>
</g>
<g>
</g>
<g>
</g>
<g>
</g>
<g>
</g>
<g>
</g>
<g>
</g>
<g>
</g>
</svg>
