<?xml version="1.0" encoding="iso-8859-1"?>
<!-- Generator: Adobe Illustrator 19.0.0, SVG Export Plug-In . SVG Version: 6.00 Build 0)  -->
<svg version="1.1" id="Layer_1" xmlns="http://www.w3.org/2000/svg" xmlns:xlink="http://www.w3.org/1999/xlink" x="0px" y="0px"
	 viewBox="0 0 512 512" style="enable-background:new 0 0 512 512;" xml:space="preserve">
<polygon style="fill:#CCCCCC;" points="303.995,473.732 207.993,473.732 216.031,440.249 223.797,407.946 288.203,407.946 
	295.956,440.249 "/>
<polygon style="fill:#999999;" points="295.956,440.249 216.031,440.249 223.797,407.946 249.925,375.918 288.203,407.946 "/>
<path style="fill:#CCCCCC;" d="M512,62.829v311.238c0,18.711-15.17,33.881-33.881,33.881H33.881C15.17,407.946,0,392.778,0,374.067
	V62.829c0-18.711,15.17-33.881,33.881-33.881h444.239C496.83,28.947,512,44.118,512,62.829z"/>
<path style="fill:#E6E6E6;" d="M512,62.829v311.238c0,18.711-15.17,33.881-33.881,33.881H205.943L312.207,28.948h165.912
	C496.83,28.947,512,44.118,512,62.829z"/>
<rect y="75.427" style="fill:#9BD7F4;" width="512" height="286.042"/>
<polygon style="fill:#C8EDFC;" points="512,75.427 512,361.469 218.976,361.469 299.174,75.427 "/>
<rect x="177.715" y="464.415" style="fill:#E6E6E6;" width="156.557" height="18.636"/>
<g>
	<rect y="69.836" style="fill:#B3B3B3;" width="512" height="11.182"/>
	<rect y="356.835" style="fill:#B3B3B3;" width="512" height="11.182"/>
</g>
<path style="fill:#E6E6E6;" d="M326.52,167.801v51.858h-18.636v-51.858c0-17.754-8.958-33.458-22.6-42.814
	c-8.337-5.728-18.425-9.07-29.284-9.07c-28.613,0-51.883,23.27-51.883,51.883v51.858H185.48v-51.858
	c0-38.888,31.632-70.52,70.52-70.52c12.524,0,24.302,3.292,34.514,9.045C311.983,118.415,326.52,141.436,326.52,167.801z"/>
<path style="fill:#FFFFFF;" d="M326.52,167.801v51.858h-18.636v-51.858c0-17.754-8.958-33.458-22.6-42.814l5.231-18.661
	C311.983,118.415,326.52,141.436,326.52,167.801z"/>
<rect x="174.622" y="210.341" style="fill:#F94B54;" width="162.757" height="118.03"/>
<polygon style="fill:#F98791;" points="337.378,210.34 337.378,328.37 228.257,328.37 261.342,210.34 "/>
<path style="fill:#333333;" d="M274.524,261.795c0-10.233-8.296-18.528-18.528-18.528c-10.233,0-18.528,8.296-18.528,18.528
	c0,7.739,4.747,14.362,11.486,17.134v12.915c0,3.89,3.153,7.043,7.043,7.043s7.043-3.153,7.043-7.043v-12.915
	C269.777,276.156,274.524,269.532,274.524,261.795z"/>
<g>
</g>
<g>
</g>
<g>
</g>
<g>
</g>
<g>
</g>
<g>
</g>
<g>
</g>
<g>
</g>
<g>
</g>
<g>
</g>
<g>
</g>
<g>
</g>
<g>
</g>
<g>
</g>
<g>
</g>
</svg>
