<?xml version="1.0"?>
<svg xmlns="http://www.w3.org/2000/svg" xmlns:xlink="http://www.w3.org/1999/xlink" version="1.1" id="Capa_1" x="0px" y="0px" viewBox="0 0 512.012 512.012" style="enable-background:new 0 0 512.012 512.012;" xml:space="preserve" width="512px" height="512px" class=""><g><path style="fill:#2196F3;" d="M503.595,298.987l-85.333-21.333c-1.696-0.416-3.467-0.416-5.163,0l-85.333,21.333  c-4.75,1.185-8.084,5.451-8.085,10.347v128c0,32.981,70.4,64.853,91.904,73.856c2.628,1.096,5.585,1.096,8.213,0  c21.483-9.003,91.883-40.875,91.883-73.856v-128C511.679,304.438,508.345,300.171,503.595,298.987z" data-original="#2196F3" class=""/><path style="fill:#6AC7F6" d="M298.347,437.333v-128c0.004-14.687,10.005-27.486,24.256-31.04l21.867-5.461  c4.799-8.4,7.506-17.832,7.893-27.499c-0.379-3.847,0.529-7.711,2.581-10.987c3.326-0.833,6.049-3.215,7.317-6.4  c6.146-14.869,9.994-30.587,11.413-46.613c-0.001-0.87-0.108-1.737-0.32-2.581c-1.53-6.226-5.19-11.721-10.347-15.531v-56.555  c0-34.368-10.496-48.469-21.568-56.64C339.371,33.472,321.622,0,256.342,0c-57.917,2.332-104.335,48.75-106.667,106.667v56.555  c-5.156,3.81-8.817,9.305-10.347,15.531c-0.212,0.844-0.319,1.711-0.32,2.581c1.424,16.035,5.28,31.76,11.435,46.635  c0.924,3.015,3.347,5.334,6.4,6.123c1.173,0.597,3.413,3.691,3.413,11.243c2.717,22.586,14.004,43.267,31.531,57.771  c-2.133,13.973-12.651,50.816-34.901,60.096l-94.571,31.467c-24.295,8.031-42.75,27.993-48.853,52.843l-12.8,51.2  c-1.449,5.71,2.005,11.514,7.715,12.963c0.86,0.218,1.744,0.328,2.632,0.328h352.853  C328.79,492.672,298.347,467.328,298.347,437.333z" data-original="#455A64" class="active-path" data-old_color="#0CA5F2"/><g>
	<polygon style="fill:#FAFAFA" points="415.68,321.301 362.347,331.968 362.347,394.667 415.68,394.667  " data-original="#FAFAFA" class=""/>
	<polygon style="fill:#FAFAFA" points="415.68,394.667 415.68,465.152 469.014,439.147 469.014,394.667  " data-original="#FAFAFA" class=""/>
</g></g> </svg>
